# xmcd
#
# Track frame offsets: 
#        183
#        15943
#        30993
#        44790
#        54683
#        70790
#        88130
#        103098
#        124398
#        141048
#        153830
#        173440
#        189275
#        198950
#        214408
#        227728
#
# Disc length: 3244 seconds
#
# Revision: 2
# Processed by: cddbd v1.5.2PL0 Copyright (c) Steve Scherf et al.
# Submitted via: ExactAudioCopy v0.99pb5
#
DISCID=d60caa10
DTITLE=Various Artist - Sentimental journey
DYEAR=1992
DGENRE=Instrumental
TTITLE0=Hugo Strasser - Sentimentale Journey
TTITLE1=Curt Prima - California Dreams
TTITLE2=Gino Marinello - For your eyes only
TTITLE3=Pepe Leon - La cucaracha
TTITLE4=Gino Marinello - Love me tender
TTITLE5=Ricky King - Verde
TTITLE6=Orchester Hagen Galatis - Irish morning
TTITLE7=Orchester Hagen Galatis - Nikita
TTITLE8=Berry Lipman - La parranda
TTITLE9=Ambros Seelos - Ready to sail
TTITLE10=Orchester Wolfgang Drechsler - Mornin'
TTITLE11=Curt Prima - St.Tropez
TTITLE12=Pepe Leon - Cielito Lindo
TTITLE13=Günter Noris - Love story
TTITLE14=Ambros Seelos - Bella Venezia
TTITLE15=Facio Santillan - El Condo Pasa
EXTD=
EXTT0=
EXTT1=
EXTT2=
EXTT3=
EXTT4=
EXTT5=
EXTT6=
EXTT7=
EXTT8=
EXTT9=
EXTT10=
EXTT11=
EXTT12=
EXTT13=
EXTT14=
EXTT15=
PLAYORDER=
